<?xml version="1.0" encoding="utf-8"?>
<!-- Generator: Adobe Illustrator 16.0.0, SVG Export Plug-In . SVG Version: 6.00 Build 0)  -->
<!DOCTYPE svg PUBLIC "-//W3C//DTD SVG 1.1//EN" "http://www.w3.org/Graphics/SVG/1.1/DTD/svg11.dtd">
<svg version="1.1" id="Capa_1" xmlns="http://www.w3.org/2000/svg" xmlns:xlink="http://www.w3.org/1999/xlink" x="0px" y="0px"
	 width="612px" height="792px" viewBox="0 0 612 792" enable-background="new 0 0 612 792" xml:space="preserve">
<line fill="#1D1D1B" x1="-39.999" y1="214.339" x2="78.001" y2="214.339"/>
<line fill="#1D1D1B" x1="78.001" y1="214.339" x2="78.001" y2="287.339"/>
<line fill="#1D1D1B" x1="78.001" y1="287.339" x2="498" y2="287.339"/>
<line fill="#1D1D1B" x1="498" y1="287.339" x2="498" y2="299.339"/>
<line fill="#1D1D1B" x1="498" y1="299.339" x2="669" y2="299.339"/>
<line fill="#1D1D1B" x1="669" y1="299.339" x2="669" y2="441.339"/>
<line fill="#1D1D1B" x1="669" y1="441.339" x2="680" y2="441.339"/>
<line fill="#1D1D1B" x1="680" y1="441.339" x2="680" y2="470.339"/>
<line fill="#1D1D1B" x1="680" y1="470.339" x2="455" y2="470.339"/>
<line fill="#1D1D1B" x1="455" y1="470.339" x2="455" y2="512.339"/>
<line fill="#1D1D1B" x1="455" y1="512.339" x2="497" y2="512.339"/>
<line fill="#1D1D1B" x1="497" y1="512.339" x2="497" y2="526.339"/>
<line fill="#1D1D1B" x1="497" y1="526.339" x2="-52" y2="526.339"/>
<line fill="#1D1D1B" x1="-52" y1="526.339" x2="-52" y2="498.339"/>
<line fill="#1D1D1B" x1="-52" y1="498.339" x2="-40" y2="498.339"/>
<line fill="#1D1D1B" x1="-40" y1="498.339" x2="-40" y2="214.339"/>
</svg>
