<?xml version="1.0" encoding="utf-8"?>
<!-- Generator: Adobe Illustrator 16.0.0, SVG Export Plug-In . SVG Version: 6.00 Build 0)  -->
<!DOCTYPE svg PUBLIC "-//W3C//DTD SVG 1.1//EN" "http://www.w3.org/Graphics/SVG/1.1/DTD/svg11.dtd">
<svg version="1.1" id="Capa_1" xmlns="http://www.w3.org/2000/svg" xmlns:xlink="http://www.w3.org/1999/xlink" x="0px" y="0px"
	 width="612px" height="792px" viewBox="0 0 612 792" enable-background="new 0 0 612 792" xml:space="preserve">
<line fill="none" stroke="#FFFFFF" x1="19.167" y1="244.669" x2="19.167" y2="215.669"/>
<line fill="none" stroke="#FFFFFF" x1="-38.667" y1="215.669" x2="19.167" y2="215.669"/>
<line fill="none" stroke="#FFFFFF" x1="-38.667" y1="215.669" x2="-38.667" y2="512.339"/>
<line fill="none" stroke="#FFFFFF" x1="60" y1="512.339" x2="-38.667" y2="512.339"/>
<line fill="none" stroke="#FFFFFF" x1="19.167" y1="260.012" x2="19.167" y2="288.012"/>
<line fill="none" stroke="#FFFFFF" x1="31.667" y1="237.346" x2="19.167" y2="237.346"/>
<line fill="none" stroke="#FFFFFF" x1="43.333" y1="237.346" x2="77" y2="237.346"/>
<line fill="none" stroke="#FFFFFF" x1="77" y1="215.669" x2="77" y2="240.346"/>
<line fill="none" stroke="#FFFFFF" x1="77" y1="264.012" x2="77" y2="288.012"/>
<line fill="none" stroke="#FFFFFF" x1="46.667" y1="215.669" x2="46.667" y2="225.679"/>
<line fill="none" stroke="#FFFFFF" x1="-38.667" y1="288.012" x2="19.167" y2="288.012"/>
<line fill="none" stroke="#FFFFFF" x1="19.167" y1="288.012" x2="46.667" y2="288.012"/>
<line fill="none" stroke="#FFFFFF" x1="77" y1="288.012" x2="60.167" y2="288.012"/>
<line fill="none" stroke="#FFFFFF" x1="55" y1="313.677" x2="317" y2="313.676"/>
<line fill="none" stroke="#1D1D1B" x1="305.601" y1="422.008" x2="405.601" y2="422.008"/>
<line fill="none" stroke="#FFFFFF" x1="529.666" y1="456.005" x2="667.666" y2="456.005"/>
<line fill="none" stroke="#FFFFFF" x1="667.666" y1="456.005" x2="667.666" y2="299.005"/>
<line fill="none" stroke="#FFFFFF" x1="667.666" y1="299.005" x2="480" y2="299.005"/>
<line fill="none" stroke="#FFFFFF" x1="472" y1="365.671" x2="543" y2="365.671"/>
<line fill="none" stroke="#1D1D1B" x1="313.167" y1="329.009" x2="316.167" y2="329.009"/>
<line fill="none" stroke="#1D1D1B" x1="314.667" y1="330.509" x2="314.667" y2="327.509"/>
<line fill="none" stroke="#1D1D1B" x1="402" y1="329.009" x2="405" y2="329.009"/>
<line fill="none" stroke="#1D1D1B" x1="403.5" y1="327.509" x2="403.5" y2="330.509"/>
<line fill="none" stroke="#1D1D1B" x1="491.167" y1="329.009" x2="494.167" y2="329.009"/>
<line fill="none" stroke="#1D1D1B" x1="492.667" y1="327.509" x2="492.667" y2="330.509"/>
<line fill="none" stroke="#1D1D1B" x1="402" y1="427.838" x2="405" y2="427.838"/>
<line fill="none" stroke="#1D1D1B" x1="403.5" y1="426.338" x2="403.5" y2="429.338"/>
<line fill="none" stroke="#1D1D1B" x1="491.167" y1="427.838" x2="494.167" y2="427.838"/>
<line fill="none" stroke="#1D1D1B" x1="492.667" y1="426.338" x2="492.667" y2="429.338"/>
<line fill="none" stroke="#1D1D1B" x1="314.667" y1="426.338" x2="314.667" y2="429.338"/>
<line fill="none" stroke="#1D1D1B" x1="313.167" y1="427.838" x2="316.167" y2="427.838"/>
<line fill="none" stroke="#1D1D1B" x1="580.167" y1="329.009" x2="583.167" y2="329.009"/>
<line fill="none" stroke="#1D1D1B" x1="581.667" y1="327.509" x2="581.667" y2="330.509"/>
<line fill="none" stroke="#1D1D1B" x1="582.834" y1="427.838" x2="579.834" y2="427.838"/>
<line fill="none" stroke="#1D1D1B" x1="581.334" y1="426.338" x2="581.334" y2="429.338"/>
<line fill="none" stroke="#1D1D1B" x1="577.667" y1="328.175" x2="579.167" y2="328.175"/>
<line fill="none" stroke="#1D1D1B" x1="578.417" y1="327.509" x2="578.417" y2="329.009"/>
<line fill="none" stroke="#1D1D1B" x1="578.417" y1="340.175" x2="578.417" y2="341.675"/>
<line fill="none" stroke="#1D1D1B" x1="577.667" y1="340.925" x2="579.167" y2="340.925"/>
<line fill="none" stroke="#1D1D1B" x1="578.417" y1="352.509" x2="578.417" y2="354.009"/>
<line fill="none" stroke="#1D1D1B" x1="577.667" y1="353.259" x2="579.167" y2="353.259"/>
<line fill="none" stroke="#1D1D1B" x1="577.667" y1="365.671" x2="579.167" y2="365.671"/>
<line fill="none" stroke="#1D1D1B" x1="578.417" y1="364.921" x2="578.417" y2="366.421"/>
<line fill="none" stroke="#1D1D1B" x1="578.417" y1="377.405" x2="578.417" y2="378.905"/>
<line fill="none" stroke="#1D1D1B" x1="577.667" y1="378.155" x2="579.167" y2="378.155"/>
<line fill="none" stroke="#1D1D1B" x1="578.417" y1="390.233" x2="578.417" y2="391.733"/>
<line fill="none" stroke="#1D1D1B" x1="577.667" y1="390.983" x2="579.167" y2="390.983"/>
<line fill="none" stroke="#1D1D1B" x1="578.417" y1="403.062" x2="578.417" y2="404.562"/>
<line fill="none" stroke="#1D1D1B" x1="577.667" y1="403.812" x2="579.167" y2="403.812"/>
<line fill="none" stroke="#1D1D1B" x1="578.417" y1="415.636" x2="578.417" y2="417.136"/>
<line fill="none" stroke="#1D1D1B" x1="577.667" y1="416.386" x2="579.167" y2="416.386"/>
<line fill="none" stroke="#1D1D1B" x1="578.417" y1="427.838" x2="578.417" y2="429.338"/>
<line fill="none" stroke="#1D1D1B" x1="577.667" y1="428.588" x2="579.167" y2="428.588"/>
<line fill="none" stroke="#1D1D1B" x1="370.001" y1="334.083" x2="371.501" y2="334.083"/>
<line fill="none" stroke="#1D1D1B" x1="370.751" y1="333.333" x2="370.751" y2="334.833"/>
<line fill="none" stroke="#1D1D1B" x1="384.251" y1="334.083" x2="385.751" y2="334.083"/>
<line fill="none" stroke="#1D1D1B" x1="385.001" y1="333.333" x2="385.001" y2="334.833"/>
<line fill="none" stroke="#1D1D1B" x1="398.001" y1="334.083" x2="399.501" y2="334.083"/>
<line fill="none" stroke="#1D1D1B" x1="398.751" y1="333.333" x2="398.751" y2="334.833"/>
<line fill="none" stroke="#1D1D1B" x1="412.001" y1="334.083" x2="413.501" y2="334.083"/>
<line fill="none" stroke="#1D1D1B" x1="412.751" y1="333.333" x2="412.751" y2="334.833"/>
<line fill="none" stroke="#1D1D1B" x1="426.001" y1="334.083" x2="427.501" y2="334.083"/>
<line fill="none" stroke="#1D1D1B" x1="426.751" y1="333.333" x2="426.751" y2="334.833"/>
<line fill="none" stroke="#1D1D1B" x1="440.251" y1="334.083" x2="441.751" y2="334.083"/>
<line fill="none" stroke="#1D1D1B" x1="441.001" y1="333.333" x2="441.001" y2="334.833"/>
<line fill="none" stroke="#1D1D1B" x1="453.917" y1="334.083" x2="455.417" y2="334.083"/>
<line fill="none" stroke="#1D1D1B" x1="454.667" y1="333.333" x2="454.667" y2="334.833"/>
<line fill="none" stroke="#1D1D1B" x1="468.251" y1="334.083" x2="469.751" y2="334.083"/>
<line fill="none" stroke="#1D1D1B" x1="469.001" y1="333.333" x2="469.001" y2="334.833"/>
<line fill="none" stroke="#1D1D1B" x1="482.667" y1="334.083" x2="484.167" y2="334.083"/>
<line fill="none" stroke="#1D1D1B" x1="483.417" y1="333.333" x2="483.417" y2="334.833"/>
<line fill="none" stroke="#1D1D1B" x1="496.334" y1="334.083" x2="497.834" y2="334.083"/>
<line fill="none" stroke="#1D1D1B" x1="497.084" y1="333.333" x2="497.084" y2="334.833"/>
<line fill="none" stroke="#1D1D1B" x1="510.501" y1="334.083" x2="512.001" y2="334.083"/>
<line fill="none" stroke="#1D1D1B" x1="511.251" y1="333.333" x2="511.251" y2="334.833"/>
<line fill="none" stroke="#1D1D1B" x1="385.001" y1="376.753" x2="385.001" y2="378.253"/>
<line fill="none" stroke="#1D1D1B" x1="384.251" y1="377.503" x2="385.751" y2="377.503"/>
<line fill="none" stroke="#1D1D1B" x1="475.334" y1="456.005" x2="476.834" y2="456.005"/>
<line fill="none" stroke="#1D1D1B" x1="476.084" y1="455.255" x2="476.084" y2="456.755"/>
<line fill="none" stroke="#1D1D1B" x1="424.625" y1="456.005" x2="423" y2="456.005"/>
<line fill="none" stroke="#1D1D1B" x1="423.813" y1="455.255" x2="423.813" y2="456.755"/>
<line fill="none" stroke="#1D1D1B" x1="371.375" y1="456.005" x2="369.875" y2="456.005"/>
<line fill="none" stroke="#1D1D1B" x1="370.625" y1="456.755" x2="370.625" y2="455.255"/>
<line fill="none" stroke="#1D1D1B" x1="370.625" y1="427.838" x2="370.625" y2="422.008"/>
</svg>
