<?xml version="1.0" encoding="utf-8"?>
<!-- Generator: Adobe Illustrator 16.0.0, SVG Export Plug-In . SVG Version: 6.00 Build 0)  -->
<!DOCTYPE svg PUBLIC "-//W3C//DTD SVG 1.1//EN" "http://www.w3.org/Graphics/SVG/1.1/DTD/svg11.dtd">
<svg version="1.1" id="Capa_1" xmlns="http://www.w3.org/2000/svg" xmlns:xlink="http://www.w3.org/1999/xlink" x="0px" y="0px"
	 width="612px" height="792px" viewBox="0 0 612 792" enable-background="new 0 0 612 792" xml:space="preserve">
<line fill="none" stroke="#FFFFFF" x1="19.167" y1="244.669" x2="19.167" y2="215.669"/>
<line fill="none" stroke="#FFFFFF" x1="-38.667" y1="215.669" x2="19.167" y2="215.669"/>
<line fill="none" stroke="#FFFFFF" x1="-38.667" y1="215.669" x2="-38.667" y2="512.339"/>
<line fill="none" stroke="#FFFFFF" x1="60" y1="512.339" x2="-38.667" y2="512.339"/>
<line fill="none" stroke="#FFFFFF" x1="19.167" y1="260.012" x2="19.167" y2="288.012"/>
<line fill="none" stroke="#FFFFFF" x1="31.667" y1="237.346" x2="19.167" y2="237.346"/>
<line fill="none" stroke="#FFFFFF" x1="43.333" y1="237.346" x2="77" y2="237.346"/>
<line fill="none" stroke="#FFFFFF" x1="77" y1="215.669" x2="77" y2="240.346"/>
<line fill="none" stroke="#FFFFFF" x1="77" y1="264.012" x2="77" y2="288.012"/>
<line fill="none" stroke="#FFFFFF" x1="46.667" y1="215.669" x2="46.667" y2="225.679"/>
<line fill="none" stroke="#FFFFFF" x1="-38.667" y1="288.012" x2="19.167" y2="288.012"/>
<line fill="none" stroke="#FFFFFF" x1="19.167" y1="288.012" x2="46.667" y2="288.012"/>
<line fill="none" stroke="#FFFFFF" x1="77" y1="288.012" x2="60.167" y2="288.012"/>
<line fill="none" stroke="#FFFFFF" x1="55" y1="313.677" x2="317" y2="313.676"/>
<line fill="none" stroke="#FFFFFF" x1="305.601" y1="422.008" x2="405.601" y2="422.008"/>
<line fill="none" stroke="#FFFFFF" x1="529.666" y1="456.005" x2="667.666" y2="456.005"/>
<line fill="none" stroke="#FFFFFF" x1="667.666" y1="456.005" x2="667.666" y2="299.005"/>
<line fill="none" stroke="#FFFFFF" x1="667.666" y1="299.005" x2="480" y2="299.005"/>
<line fill="none" stroke="#FFFFFF" x1="472" y1="365.671" x2="543" y2="365.671"/>
<line fill="none" stroke="#FFFFFF" x1="529.666" y1="456.005" x2="371.666" y2="456.005"/>
<line fill="none" stroke="#FFFFFF" x1="371.666" y1="334.002" x2="511.666" y2="334.002"/>
<line fill="none" stroke="#FFFFFF" x1="398.666" y1="334.002" x2="398.666" y2="422.008"/>
<line fill="none" stroke="#FFFFFF" x1="384.333" y1="334.002" x2="384.333" y2="422.008"/>
<line fill="none" stroke="#FFFFFF" x1="577.999" y1="328.002" x2="577.999" y2="428.002"/>
<line fill="none" stroke="#FFFFFF" x1="77" y1="264.012" x2="77" y2="240.346"/>
<line fill="none" stroke="#FFFFFF" x1="77" y1="215.669" x2="19.167" y2="215.669"/>
</svg>
